<mxfile host="app.diagrams.net" modified="2024-04-25T19:32:54.942Z" agent="Mozilla/5.0 (Macintosh; Intel Mac OS X 10_15_7) AppleWebKit/537.36 (KHTML, like Gecko) Chrome/121.0.0.0 Safari/537.36" etag="ilW0kqDXQBCDHJbXNcvt" version="24.2.8" type="device">
  <diagram name="Страница — 1" id="9ZE65l1KGwTKhNTBGq4V">
    <mxGraphModel dx="1225" dy="711" grid="1" gridSize="10" guides="1" tooltips="1" connect="1" arrows="1" fold="1" page="1" pageScale="1" pageWidth="827" pageHeight="1169" math="0" shadow="0">
      <root>
        <mxCell id="0" />
        <mxCell id="1" parent="0" />
        <mxCell id="1THvELaNy-AiXl3zuCS2-1" value="Клиент" style="swimlane;html=1;startSize=20;fontStyle=0;collapsible=0;horizontal=0;swimlaneLine=1;swimlaneFillColor=#ffffff;strokeWidth=2;whiteSpace=wrap;" vertex="1" parent="1">
          <mxGeometry x="40" y="30" width="3460" height="100" as="geometry" />
        </mxCell>
        <mxCell id="1THvELaNy-AiXl3zuCS2-7" value="Отель" style="swimlane;html=1;childLayout=stackLayout;resizeParent=1;resizeParentMax=0;horizontal=0;startSize=20;horizontalStack=0;whiteSpace=wrap;" vertex="1" parent="1">
          <mxGeometry x="40" y="180" width="3460" height="890" as="geometry" />
        </mxCell>
        <mxCell id="1THvELaNy-AiXl3zuCS2-8" value="Система бронирования" style="swimlane;html=1;startSize=20;horizontal=0;" vertex="1" parent="1THvELaNy-AiXl3zuCS2-7">
          <mxGeometry x="20" width="3440" height="660" as="geometry" />
        </mxCell>
        <mxCell id="1THvELaNy-AiXl3zuCS2-11" value="Клиент обратился&lt;div&gt;в систему бронирования&lt;/div&gt;" style="points=[[0.145,0.145,0],[0.5,0,0],[0.855,0.145,0],[1,0.5,0],[0.855,0.855,0],[0.5,1,0],[0.145,0.855,0],[0,0.5,0]];shape=mxgraph.bpmn.event;html=1;verticalLabelPosition=bottom;labelBackgroundColor=#ffffff;verticalAlign=top;align=center;perimeter=ellipsePerimeter;outlineConnect=0;aspect=fixed;outline=standard;symbol=message;" vertex="1" parent="1THvELaNy-AiXl3zuCS2-8">
          <mxGeometry x="85" y="57" width="50" height="50" as="geometry" />
        </mxCell>
        <mxCell id="1THvELaNy-AiXl3zuCS2-18" style="edgeStyle=orthogonalEdgeStyle;rounded=0;orthogonalLoop=1;jettySize=auto;html=1;exitX=1;exitY=0.5;exitDx=0;exitDy=0;exitPerimeter=0;entryX=0;entryY=0.5;entryDx=0;entryDy=0;entryPerimeter=0;" edge="1" parent="1THvELaNy-AiXl3zuCS2-8" source="1THvELaNy-AiXl3zuCS2-11">
          <mxGeometry relative="1" as="geometry">
            <mxPoint x="230" y="82" as="targetPoint" />
          </mxGeometry>
        </mxCell>
        <mxCell id="1THvELaNy-AiXl3zuCS2-32" style="edgeStyle=orthogonalEdgeStyle;rounded=0;orthogonalLoop=1;jettySize=auto;html=1;exitX=1;exitY=0.5;exitDx=0;exitDy=0;exitPerimeter=0;" edge="1" parent="1THvELaNy-AiXl3zuCS2-8" source="1THvELaNy-AiXl3zuCS2-20" target="1THvELaNy-AiXl3zuCS2-31">
          <mxGeometry relative="1" as="geometry" />
        </mxCell>
        <mxCell id="1THvELaNy-AiXl3zuCS2-20" value="Идентифицировать&lt;div&gt;клиента&lt;/div&gt;" style="points=[[0.25,0,0],[0.5,0,0],[0.75,0,0],[1,0.25,0],[1,0.5,0],[1,0.75,0],[0.75,1,0],[0.5,1,0],[0.25,1,0],[0,0.75,0],[0,0.5,0],[0,0.25,0]];shape=mxgraph.bpmn.task;whiteSpace=wrap;rectStyle=rounded;size=10;html=1;container=1;expand=0;collapsible=0;taskMarker=abstract;isLoopSub=1;" vertex="1" parent="1THvELaNy-AiXl3zuCS2-8">
          <mxGeometry x="231" y="42" width="120" height="80" as="geometry" />
        </mxCell>
        <mxCell id="1THvELaNy-AiXl3zuCS2-21" value="" style="points=[[0.145,0.145,0],[0.5,0,0],[0.855,0.145,0],[1,0.5,0],[0.855,0.855,0],[0.5,1,0],[0.145,0.855,0],[0,0.5,0]];shape=mxgraph.bpmn.event;html=1;verticalLabelPosition=bottom;labelBackgroundColor=#ffffff;verticalAlign=top;align=center;perimeter=ellipsePerimeter;outlineConnect=0;aspect=fixed;outline=eventInt;symbol=error;" vertex="1" parent="1THvELaNy-AiXl3zuCS2-20">
          <mxGeometry x="79" y="51" width="50" height="50" as="geometry" />
        </mxCell>
        <mxCell id="1THvELaNy-AiXl3zuCS2-36" style="edgeStyle=orthogonalEdgeStyle;rounded=0;orthogonalLoop=1;jettySize=auto;html=1;exitX=1;exitY=0.5;exitDx=0;exitDy=0;exitPerimeter=0;" edge="1" parent="1THvELaNy-AiXl3zuCS2-8" source="1THvELaNy-AiXl3zuCS2-22">
          <mxGeometry relative="1" as="geometry">
            <mxPoint x="710" y="82" as="targetPoint" />
          </mxGeometry>
        </mxCell>
        <mxCell id="1THvELaNy-AiXl3zuCS2-22" value="Выполнить авторизацию по номеру телефона" style="points=[[0.25,0,0],[0.5,0,0],[0.75,0,0],[1,0.25,0],[1,0.5,0],[1,0.75,0],[0.75,1,0],[0.5,1,0],[0.25,1,0],[0,0.75,0],[0,0.5,0],[0,0.25,0]];shape=mxgraph.bpmn.task;whiteSpace=wrap;rectStyle=rounded;size=10;html=1;container=1;expand=0;collapsible=0;taskMarker=service;" vertex="1" parent="1THvELaNy-AiXl3zuCS2-8">
          <mxGeometry x="510" y="42" width="120" height="80" as="geometry" />
        </mxCell>
        <mxCell id="1THvELaNy-AiXl3zuCS2-24" value="Провести регистрацию по номеру телефона" style="points=[[0.25,0,0],[0.5,0,0],[0.75,0,0],[1,0.25,0],[1,0.5,0],[1,0.75,0],[0.75,1,0],[0.5,1,0],[0.25,1,0],[0,0.75,0],[0,0.5,0],[0,0.25,0]];shape=mxgraph.bpmn.task;whiteSpace=wrap;rectStyle=rounded;size=10;html=1;container=1;expand=0;collapsible=0;taskMarker=abstract;isLoopSub=1;" vertex="1" parent="1THvELaNy-AiXl3zuCS2-8">
          <mxGeometry x="280" y="180" width="120" height="80" as="geometry" />
        </mxCell>
        <mxCell id="1THvELaNy-AiXl3zuCS2-25" value="" style="points=[[0.145,0.145,0],[0.5,0,0],[0.855,0.145,0],[1,0.5,0],[0.855,0.855,0],[0.5,1,0],[0.145,0.855,0],[0,0.5,0]];shape=mxgraph.bpmn.event;html=1;verticalLabelPosition=bottom;labelBackgroundColor=#ffffff;verticalAlign=top;align=center;perimeter=ellipsePerimeter;outlineConnect=0;aspect=fixed;outline=eventInt;symbol=error;" vertex="1" parent="1THvELaNy-AiXl3zuCS2-24">
          <mxGeometry x="79" y="65" width="50" height="50" as="geometry" />
        </mxCell>
        <mxCell id="1THvELaNy-AiXl3zuCS2-26" style="edgeStyle=orthogonalEdgeStyle;rounded=0;orthogonalLoop=1;jettySize=auto;html=1;exitX=0.5;exitY=1;exitDx=0;exitDy=0;exitPerimeter=0;entryX=0.5;entryY=0;entryDx=0;entryDy=0;entryPerimeter=0;" edge="1" parent="1THvELaNy-AiXl3zuCS2-8" source="1THvELaNy-AiXl3zuCS2-21" target="1THvELaNy-AiXl3zuCS2-24">
          <mxGeometry relative="1" as="geometry" />
        </mxCell>
        <mxCell id="1THvELaNy-AiXl3zuCS2-27" value="Попрощаться&amp;nbsp;&lt;div&gt;с клиентом&lt;/div&gt;" style="points=[[0.145,0.145,0],[0.5,0,0],[0.855,0.145,0],[1,0.5,0],[0.855,0.855,0],[0.5,1,0],[0.145,0.855,0],[0,0.5,0]];shape=mxgraph.bpmn.event;html=1;verticalLabelPosition=bottom;labelBackgroundColor=#ffffff;verticalAlign=top;align=center;perimeter=ellipsePerimeter;outlineConnect=0;aspect=fixed;outline=end;symbol=terminate2;" vertex="1" parent="1THvELaNy-AiXl3zuCS2-8">
          <mxGeometry x="359" y="340" width="50" height="50" as="geometry" />
        </mxCell>
        <mxCell id="1THvELaNy-AiXl3zuCS2-29" style="edgeStyle=orthogonalEdgeStyle;rounded=0;orthogonalLoop=1;jettySize=auto;html=1;exitX=0.5;exitY=1;exitDx=0;exitDy=0;exitPerimeter=0;entryX=0.5;entryY=0;entryDx=0;entryDy=0;entryPerimeter=0;" edge="1" parent="1THvELaNy-AiXl3zuCS2-8" source="1THvELaNy-AiXl3zuCS2-25" target="1THvELaNy-AiXl3zuCS2-27">
          <mxGeometry relative="1" as="geometry" />
        </mxCell>
        <mxCell id="1THvELaNy-AiXl3zuCS2-31" value="" style="points=[[0.25,0.25,0],[0.5,0,0],[0.75,0.25,0],[1,0.5,0],[0.75,0.75,0],[0.5,1,0],[0.25,0.75,0],[0,0.5,0]];shape=mxgraph.bpmn.gateway2;html=1;verticalLabelPosition=bottom;labelBackgroundColor=#ffffff;verticalAlign=top;align=center;perimeter=rhombusPerimeter;outlineConnect=0;outline=none;symbol=none;gwType=exclusive;" vertex="1" parent="1THvELaNy-AiXl3zuCS2-8">
          <mxGeometry x="409" y="57" width="50" height="50" as="geometry" />
        </mxCell>
        <mxCell id="1THvELaNy-AiXl3zuCS2-33" style="edgeStyle=orthogonalEdgeStyle;rounded=0;orthogonalLoop=1;jettySize=auto;html=1;exitX=1;exitY=0.5;exitDx=0;exitDy=0;exitPerimeter=0;entryX=0.5;entryY=1;entryDx=0;entryDy=0;entryPerimeter=0;" edge="1" parent="1THvELaNy-AiXl3zuCS2-8" source="1THvELaNy-AiXl3zuCS2-24" target="1THvELaNy-AiXl3zuCS2-31">
          <mxGeometry relative="1" as="geometry" />
        </mxCell>
        <mxCell id="1THvELaNy-AiXl3zuCS2-34" style="edgeStyle=orthogonalEdgeStyle;rounded=0;orthogonalLoop=1;jettySize=auto;html=1;exitX=1;exitY=0.5;exitDx=0;exitDy=0;exitPerimeter=0;entryX=0;entryY=0.5;entryDx=0;entryDy=0;entryPerimeter=0;" edge="1" parent="1THvELaNy-AiXl3zuCS2-8" source="1THvELaNy-AiXl3zuCS2-31" target="1THvELaNy-AiXl3zuCS2-22">
          <mxGeometry relative="1" as="geometry" />
        </mxCell>
        <mxCell id="1THvELaNy-AiXl3zuCS2-38" value="Введите контактные&amp;nbsp;&lt;div&gt;данные для бронирования?&lt;/div&gt;" style="points=[[0.25,0.25,0],[0.5,0,0],[0.75,0.25,0],[1,0.5,0],[0.75,0.75,0],[0.5,1,0],[0.25,0.75,0],[0,0.5,0]];shape=mxgraph.bpmn.gateway2;html=1;verticalLabelPosition=top;labelBackgroundColor=#ffffff;verticalAlign=bottom;align=center;perimeter=rhombusPerimeter;outlineConnect=0;outline=catching;symbol=multiple;labelPosition=center;" vertex="1" parent="1THvELaNy-AiXl3zuCS2-8">
          <mxGeometry x="1286" y="57" width="50" height="50" as="geometry" />
        </mxCell>
        <mxCell id="1THvELaNy-AiXl3zuCS2-40" value="ОК" style="points=[[0.145,0.145,0],[0.5,0,0],[0.855,0.145,0],[1,0.5,0],[0.855,0.855,0],[0.5,1,0],[0.145,0.855,0],[0,0.5,0]];shape=mxgraph.bpmn.event;html=1;verticalLabelPosition=bottom;labelBackgroundColor=#ffffff;verticalAlign=top;align=center;perimeter=ellipsePerimeter;outlineConnect=0;aspect=fixed;outline=throwing;symbol=message;" vertex="1" parent="1THvELaNy-AiXl3zuCS2-8">
          <mxGeometry x="1437" y="57" width="50" height="50" as="geometry" />
        </mxCell>
        <mxCell id="1THvELaNy-AiXl3zuCS2-52" style="edgeStyle=orthogonalEdgeStyle;rounded=0;orthogonalLoop=1;jettySize=auto;html=1;exitX=0.5;exitY=1;exitDx=0;exitDy=0;exitPerimeter=0;" edge="1" parent="1THvELaNy-AiXl3zuCS2-8" source="1THvELaNy-AiXl3zuCS2-45" target="1THvELaNy-AiXl3zuCS2-51">
          <mxGeometry relative="1" as="geometry" />
        </mxCell>
        <mxCell id="1THvELaNy-AiXl3zuCS2-45" value="Отказываюсь" style="points=[[0.145,0.145,0],[0.5,0,0],[0.855,0.145,0],[1,0.5,0],[0.855,0.855,0],[0.5,1,0],[0.145,0.855,0],[0,0.5,0]];shape=mxgraph.bpmn.event;html=1;verticalLabelPosition=middle;labelBackgroundColor=#ffffff;verticalAlign=middle;align=right;perimeter=ellipsePerimeter;outlineConnect=0;aspect=fixed;outline=throwing;symbol=message;labelPosition=left;" vertex="1" parent="1THvELaNy-AiXl3zuCS2-8">
          <mxGeometry x="1286" y="186" width="50" height="50" as="geometry" />
        </mxCell>
        <mxCell id="1THvELaNy-AiXl3zuCS2-47" style="edgeStyle=orthogonalEdgeStyle;rounded=0;orthogonalLoop=1;jettySize=auto;html=1;dashed=1;dashPattern=12 12;strokeColor=default;align=center;verticalAlign=middle;fontFamily=Helvetica;fontSize=11;fontColor=default;labelBackgroundColor=default;startArrow=oval;startFill=0;endArrow=block;endFill=0;entryX=0.5;entryY=0;entryDx=0;entryDy=0;entryPerimeter=0;" edge="1" parent="1THvELaNy-AiXl3zuCS2-8" target="1THvELaNy-AiXl3zuCS2-40">
          <mxGeometry relative="1" as="geometry">
            <mxPoint x="1462" y="101.81820678710938" as="targetPoint" />
            <Array as="points">
              <mxPoint x="1462" y="57" />
            </Array>
            <mxPoint x="1462" y="-50" as="sourcePoint" />
          </mxGeometry>
        </mxCell>
        <mxCell id="1THvELaNy-AiXl3zuCS2-50" style="edgeStyle=orthogonalEdgeStyle;rounded=0;orthogonalLoop=1;jettySize=auto;html=1;dashed=1;dashPattern=12 12;strokeColor=default;align=center;verticalAlign=middle;fontFamily=Helvetica;fontSize=11;fontColor=default;labelBackgroundColor=default;startArrow=oval;startFill=0;endArrow=block;endFill=0;entryX=1;entryY=0.5;entryDx=0;entryDy=0;entryPerimeter=0;" edge="1" parent="1THvELaNy-AiXl3zuCS2-8" target="1THvELaNy-AiXl3zuCS2-45">
          <mxGeometry relative="1" as="geometry">
            <mxPoint x="1392" y="71" as="targetPoint" />
            <Array as="points">
              <mxPoint x="1392" y="210" />
              <mxPoint x="1342" y="210" />
            </Array>
            <mxPoint x="1392" y="-50" as="sourcePoint" />
          </mxGeometry>
        </mxCell>
        <mxCell id="1THvELaNy-AiXl3zuCS2-51" value="Попрощаться&amp;nbsp;&lt;div&gt;с клиентом&lt;/div&gt;" style="points=[[0.145,0.145,0],[0.5,0,0],[0.855,0.145,0],[1,0.5,0],[0.855,0.855,0],[0.5,1,0],[0.145,0.855,0],[0,0.5,0]];shape=mxgraph.bpmn.event;html=1;verticalLabelPosition=bottom;labelBackgroundColor=#ffffff;verticalAlign=top;align=center;perimeter=ellipsePerimeter;outlineConnect=0;aspect=fixed;outline=end;symbol=terminate2;" vertex="1" parent="1THvELaNy-AiXl3zuCS2-8">
          <mxGeometry x="1286" y="290" width="50" height="50" as="geometry" />
        </mxCell>
        <mxCell id="1THvELaNy-AiXl3zuCS2-53" style="edgeStyle=orthogonalEdgeStyle;rounded=0;orthogonalLoop=1;jettySize=auto;html=1;exitX=1;exitY=0.5;exitDx=0;exitDy=0;exitPerimeter=0;entryX=0;entryY=0.5;entryDx=0;entryDy=0;entryPerimeter=0;" edge="1" parent="1THvELaNy-AiXl3zuCS2-8" source="1THvELaNy-AiXl3zuCS2-38" target="1THvELaNy-AiXl3zuCS2-40">
          <mxGeometry relative="1" as="geometry" />
        </mxCell>
        <mxCell id="1THvELaNy-AiXl3zuCS2-54" style="edgeStyle=orthogonalEdgeStyle;rounded=0;orthogonalLoop=1;jettySize=auto;html=1;exitX=0.5;exitY=1;exitDx=0;exitDy=0;exitPerimeter=0;entryX=0.5;entryY=0;entryDx=0;entryDy=0;entryPerimeter=0;" edge="1" parent="1THvELaNy-AiXl3zuCS2-8" source="1THvELaNy-AiXl3zuCS2-38" target="1THvELaNy-AiXl3zuCS2-45">
          <mxGeometry relative="1" as="geometry" />
        </mxCell>
        <mxCell id="1THvELaNy-AiXl3zuCS2-57" value="Выбрать даты проживания и тип номера" style="points=[[0.25,0,0],[0.5,0,0],[0.75,0,0],[1,0.25,0],[1,0.5,0],[1,0.75,0],[0.75,1,0],[0.5,1,0],[0.25,1,0],[0,0.75,0],[0,0.5,0],[0,0.25,0]];shape=mxgraph.bpmn.task;whiteSpace=wrap;rectStyle=rounded;size=10;html=1;container=1;expand=0;collapsible=0;taskMarker=abstract;isLoopSub=1;" vertex="1" parent="1THvELaNy-AiXl3zuCS2-8">
          <mxGeometry x="710" y="42" width="120" height="80" as="geometry" />
        </mxCell>
        <mxCell id="1THvELaNy-AiXl3zuCS2-60" value="Есть подходящий&amp;nbsp;&lt;div&gt;вариант?&lt;/div&gt;" style="points=[[0.25,0.25,0],[0.5,0,0],[0.75,0.25,0],[1,0.5,0],[0.75,0.75,0],[0.5,1,0],[0.25,0.75,0],[0,0.5,0]];shape=mxgraph.bpmn.gateway2;html=1;verticalLabelPosition=bottom;labelBackgroundColor=#ffffff;verticalAlign=top;align=center;perimeter=rhombusPerimeter;outlineConnect=0;outline=none;symbol=none;gwType=exclusive;" vertex="1" parent="1THvELaNy-AiXl3zuCS2-8">
          <mxGeometry x="880" y="57" width="50" height="50" as="geometry" />
        </mxCell>
        <mxCell id="1THvELaNy-AiXl3zuCS2-61" style="edgeStyle=orthogonalEdgeStyle;rounded=0;orthogonalLoop=1;jettySize=auto;html=1;exitX=1;exitY=0.5;exitDx=0;exitDy=0;exitPerimeter=0;entryX=0;entryY=0.5;entryDx=0;entryDy=0;entryPerimeter=0;" edge="1" parent="1THvELaNy-AiXl3zuCS2-8" source="1THvELaNy-AiXl3zuCS2-57" target="1THvELaNy-AiXl3zuCS2-60">
          <mxGeometry relative="1" as="geometry" />
        </mxCell>
        <mxCell id="1THvELaNy-AiXl3zuCS2-39" style="edgeStyle=orthogonalEdgeStyle;rounded=0;orthogonalLoop=1;jettySize=auto;html=1;dashed=1;dashPattern=12 12;strokeColor=default;align=center;verticalAlign=middle;fontFamily=Helvetica;fontSize=11;fontColor=default;labelBackgroundColor=default;startArrow=oval;startFill=0;endArrow=block;endFill=0;" edge="1" parent="1THvELaNy-AiXl3zuCS2-8">
          <mxGeometry relative="1" as="geometry">
            <mxPoint x="890" y="-50" as="targetPoint" />
            <Array as="points">
              <mxPoint x="890" y="66" />
            </Array>
            <mxPoint x="890" y="66" as="sourcePoint" />
          </mxGeometry>
        </mxCell>
        <mxCell id="1THvELaNy-AiXl3zuCS2-63" value="Да" style="points=[[0.145,0.145,0],[0.5,0,0],[0.855,0.145,0],[1,0.5,0],[0.855,0.855,0],[0.5,1,0],[0.145,0.855,0],[0,0.5,0]];shape=mxgraph.bpmn.event;html=1;verticalLabelPosition=bottom;labelBackgroundColor=#ffffff;verticalAlign=top;align=center;perimeter=ellipsePerimeter;outlineConnect=0;aspect=fixed;outline=throwing;symbol=message;" vertex="1" parent="1THvELaNy-AiXl3zuCS2-8">
          <mxGeometry x="1020" y="57" width="50" height="50" as="geometry" />
        </mxCell>
        <mxCell id="1THvELaNy-AiXl3zuCS2-64" style="edgeStyle=orthogonalEdgeStyle;rounded=0;orthogonalLoop=1;jettySize=auto;html=1;dashed=1;dashPattern=12 12;strokeColor=default;align=center;verticalAlign=middle;fontFamily=Helvetica;fontSize=11;fontColor=default;labelBackgroundColor=default;startArrow=oval;startFill=0;endArrow=block;endFill=0;entryX=0.5;entryY=0;entryDx=0;entryDy=0;entryPerimeter=0;" edge="1" parent="1THvELaNy-AiXl3zuCS2-8">
          <mxGeometry relative="1" as="geometry">
            <mxPoint x="1044.5" y="57" as="targetPoint" />
            <Array as="points">
              <mxPoint x="1044.5" y="57" />
            </Array>
            <mxPoint x="1044.5" y="-50" as="sourcePoint" />
          </mxGeometry>
        </mxCell>
        <mxCell id="1THvELaNy-AiXl3zuCS2-65" style="edgeStyle=orthogonalEdgeStyle;rounded=0;orthogonalLoop=1;jettySize=auto;html=1;exitX=0.5;exitY=1;exitDx=0;exitDy=0;exitPerimeter=0;" edge="1" parent="1THvELaNy-AiXl3zuCS2-8" source="1THvELaNy-AiXl3zuCS2-66">
          <mxGeometry relative="1" as="geometry">
            <mxPoint x="905" y="290" as="targetPoint" />
          </mxGeometry>
        </mxCell>
        <mxCell id="1THvELaNy-AiXl3zuCS2-66" value="Нет" style="points=[[0.145,0.145,0],[0.5,0,0],[0.855,0.145,0],[1,0.5,0],[0.855,0.855,0],[0.5,1,0],[0.145,0.855,0],[0,0.5,0]];shape=mxgraph.bpmn.event;html=1;verticalLabelPosition=middle;labelBackgroundColor=#ffffff;verticalAlign=middle;align=right;perimeter=ellipsePerimeter;outlineConnect=0;aspect=fixed;outline=throwing;symbol=message;labelPosition=left;" vertex="1" parent="1THvELaNy-AiXl3zuCS2-8">
          <mxGeometry x="880" y="186" width="50" height="50" as="geometry" />
        </mxCell>
        <mxCell id="1THvELaNy-AiXl3zuCS2-67" style="edgeStyle=orthogonalEdgeStyle;rounded=0;orthogonalLoop=1;jettySize=auto;html=1;dashed=1;dashPattern=12 12;strokeColor=default;align=center;verticalAlign=middle;fontFamily=Helvetica;fontSize=11;fontColor=default;labelBackgroundColor=default;startArrow=oval;startFill=0;endArrow=block;endFill=0;entryX=1;entryY=0.5;entryDx=0;entryDy=0;entryPerimeter=0;" edge="1" parent="1THvELaNy-AiXl3zuCS2-8" target="1THvELaNy-AiXl3zuCS2-66">
          <mxGeometry relative="1" as="geometry">
            <mxPoint x="986" y="71" as="targetPoint" />
            <Array as="points">
              <mxPoint x="986" y="210" />
              <mxPoint x="936" y="210" />
            </Array>
            <mxPoint x="986" y="-50" as="sourcePoint" />
          </mxGeometry>
        </mxCell>
        <mxCell id="1THvELaNy-AiXl3zuCS2-69" style="edgeStyle=orthogonalEdgeStyle;rounded=0;orthogonalLoop=1;jettySize=auto;html=1;exitX=0.5;exitY=1;exitDx=0;exitDy=0;exitPerimeter=0;entryX=0.5;entryY=0;entryDx=0;entryDy=0;entryPerimeter=0;" edge="1" parent="1THvELaNy-AiXl3zuCS2-8" source="1THvELaNy-AiXl3zuCS2-60" target="1THvELaNy-AiXl3zuCS2-66">
          <mxGeometry relative="1" as="geometry" />
        </mxCell>
        <mxCell id="1THvELaNy-AiXl3zuCS2-70" style="edgeStyle=orthogonalEdgeStyle;rounded=0;orthogonalLoop=1;jettySize=auto;html=1;exitX=1;exitY=0.5;exitDx=0;exitDy=0;exitPerimeter=0;entryX=0;entryY=0.5;entryDx=0;entryDy=0;entryPerimeter=0;" edge="1" parent="1THvELaNy-AiXl3zuCS2-8" source="1THvELaNy-AiXl3zuCS2-60" target="1THvELaNy-AiXl3zuCS2-63">
          <mxGeometry relative="1" as="geometry" />
        </mxCell>
        <mxCell id="1THvELaNy-AiXl3zuCS2-71" value="Предложить альтернатичный вариант" style="points=[[0.25,0,0],[0.5,0,0],[0.75,0,0],[1,0.25,0],[1,0.5,0],[1,0.75,0],[0.75,1,0],[0.5,1,0],[0.25,1,0],[0,0.75,0],[0,0.5,0],[0,0.25,0]];shape=mxgraph.bpmn.task;whiteSpace=wrap;rectStyle=rounded;size=10;html=1;container=1;expand=0;collapsible=0;taskMarker=abstract;isLoopSub=1;" vertex="1" parent="1THvELaNy-AiXl3zuCS2-8">
          <mxGeometry x="845" y="290" width="120" height="80" as="geometry" />
        </mxCell>
        <mxCell id="1THvELaNy-AiXl3zuCS2-75" value="" style="points=[[0.145,0.145,0],[0.5,0,0],[0.855,0.145,0],[1,0.5,0],[0.855,0.855,0],[0.5,1,0],[0.145,0.855,0],[0,0.5,0]];shape=mxgraph.bpmn.event;html=1;verticalLabelPosition=bottom;labelBackgroundColor=#ffffff;verticalAlign=top;align=center;perimeter=ellipsePerimeter;outlineConnect=0;aspect=fixed;outline=eventInt;symbol=error;" vertex="1" parent="1THvELaNy-AiXl3zuCS2-71">
          <mxGeometry x="85" y="50" width="50" height="50" as="geometry" />
        </mxCell>
        <mxCell id="1THvELaNy-AiXl3zuCS2-76" value="Попрощаться&amp;nbsp;&lt;div&gt;с клиентом&lt;/div&gt;" style="points=[[0.145,0.145,0],[0.5,0,0],[0.855,0.145,0],[1,0.5,0],[0.855,0.855,0],[0.5,1,0],[0.145,0.855,0],[0,0.5,0]];shape=mxgraph.bpmn.event;html=1;verticalLabelPosition=bottom;labelBackgroundColor=#ffffff;verticalAlign=top;align=center;perimeter=ellipsePerimeter;outlineConnect=0;aspect=fixed;outline=end;symbol=terminate2;" vertex="1" parent="1THvELaNy-AiXl3zuCS2-71">
          <mxGeometry x="85" y="145" width="50" height="50" as="geometry" />
        </mxCell>
        <mxCell id="1THvELaNy-AiXl3zuCS2-77" value="" style="edgeStyle=orthogonalEdgeStyle;rounded=0;orthogonalLoop=1;jettySize=auto;html=1;" edge="1" parent="1THvELaNy-AiXl3zuCS2-71" source="1THvELaNy-AiXl3zuCS2-75" target="1THvELaNy-AiXl3zuCS2-76">
          <mxGeometry relative="1" as="geometry" />
        </mxCell>
        <mxCell id="1THvELaNy-AiXl3zuCS2-74" value="" style="edgeStyle=orthogonalEdgeStyle;rounded=0;orthogonalLoop=1;jettySize=auto;html=1;" edge="1" parent="1THvELaNy-AiXl3zuCS2-8" source="1THvELaNy-AiXl3zuCS2-25" target="1THvELaNy-AiXl3zuCS2-27">
          <mxGeometry relative="1" as="geometry" />
        </mxCell>
        <mxCell id="1THvELaNy-AiXl3zuCS2-78" value="" style="points=[[0.25,0.25,0],[0.5,0,0],[0.75,0.25,0],[1,0.5,0],[0.75,0.75,0],[0.5,1,0],[0.25,0.75,0],[0,0.5,0]];shape=mxgraph.bpmn.gateway2;html=1;verticalLabelPosition=bottom;labelBackgroundColor=#ffffff;verticalAlign=top;align=center;perimeter=rhombusPerimeter;outlineConnect=0;outline=none;symbol=none;gwType=exclusive;" vertex="1" parent="1THvELaNy-AiXl3zuCS2-8">
          <mxGeometry x="1156" y="57" width="50" height="50" as="geometry" />
        </mxCell>
        <mxCell id="1THvELaNy-AiXl3zuCS2-79" style="edgeStyle=orthogonalEdgeStyle;rounded=0;orthogonalLoop=1;jettySize=auto;html=1;exitX=1;exitY=0.5;exitDx=0;exitDy=0;exitPerimeter=0;entryX=0;entryY=0.5;entryDx=0;entryDy=0;entryPerimeter=0;" edge="1" parent="1THvELaNy-AiXl3zuCS2-8" source="1THvELaNy-AiXl3zuCS2-63" target="1THvELaNy-AiXl3zuCS2-78">
          <mxGeometry relative="1" as="geometry" />
        </mxCell>
        <mxCell id="1THvELaNy-AiXl3zuCS2-80" style="edgeStyle=orthogonalEdgeStyle;rounded=0;orthogonalLoop=1;jettySize=auto;html=1;exitX=1;exitY=0.5;exitDx=0;exitDy=0;exitPerimeter=0;entryX=0.5;entryY=1;entryDx=0;entryDy=0;entryPerimeter=0;" edge="1" parent="1THvELaNy-AiXl3zuCS2-8" source="1THvELaNy-AiXl3zuCS2-71" target="1THvELaNy-AiXl3zuCS2-78">
          <mxGeometry relative="1" as="geometry" />
        </mxCell>
        <mxCell id="1THvELaNy-AiXl3zuCS2-81" style="edgeStyle=orthogonalEdgeStyle;rounded=0;orthogonalLoop=1;jettySize=auto;html=1;exitX=1;exitY=0.5;exitDx=0;exitDy=0;exitPerimeter=0;entryX=0;entryY=0.5;entryDx=0;entryDy=0;entryPerimeter=0;" edge="1" parent="1THvELaNy-AiXl3zuCS2-8" source="1THvELaNy-AiXl3zuCS2-78" target="1THvELaNy-AiXl3zuCS2-38">
          <mxGeometry relative="1" as="geometry" />
        </mxCell>
        <mxCell id="1THvELaNy-AiXl3zuCS2-82" style="edgeStyle=orthogonalEdgeStyle;rounded=0;orthogonalLoop=1;jettySize=auto;html=1;exitX=1;exitY=0.5;exitDx=0;exitDy=0;exitPerimeter=0;entryX=0;entryY=0.5;entryDx=0;entryDy=0;entryPerimeter=0;" edge="1" parent="1THvELaNy-AiXl3zuCS2-8" source="1THvELaNy-AiXl3zuCS2-40">
          <mxGeometry relative="1" as="geometry">
            <mxPoint x="1542" y="82" as="targetPoint" />
          </mxGeometry>
        </mxCell>
        <mxCell id="1THvELaNy-AiXl3zuCS2-85" style="edgeStyle=orthogonalEdgeStyle;rounded=0;orthogonalLoop=1;jettySize=auto;html=1;exitX=1;exitY=0.5;exitDx=0;exitDy=0;exitPerimeter=0;" edge="1" parent="1THvELaNy-AiXl3zuCS2-8" source="1THvELaNy-AiXl3zuCS2-83">
          <mxGeometry relative="1" as="geometry">
            <mxPoint x="1900" y="82" as="targetPoint" />
          </mxGeometry>
        </mxCell>
        <mxCell id="1THvELaNy-AiXl3zuCS2-87" value="Нет" style="edgeLabel;html=1;align=center;verticalAlign=middle;resizable=0;points=[];" vertex="1" connectable="0" parent="1THvELaNy-AiXl3zuCS2-85">
          <mxGeometry x="-0.0403" y="-4" relative="1" as="geometry">
            <mxPoint y="-5" as="offset" />
          </mxGeometry>
        </mxCell>
        <mxCell id="1THvELaNy-AiXl3zuCS2-86" value="Да" style="edgeStyle=orthogonalEdgeStyle;rounded=0;orthogonalLoop=1;jettySize=auto;html=1;exitX=0.5;exitY=1;exitDx=0;exitDy=0;exitPerimeter=0;" edge="1" parent="1THvELaNy-AiXl3zuCS2-8" source="1THvELaNy-AiXl3zuCS2-83">
          <mxGeometry x="0.006" relative="1" as="geometry">
            <mxPoint x="1755" y="190" as="targetPoint" />
            <mxPoint as="offset" />
          </mxGeometry>
        </mxCell>
        <mxCell id="1THvELaNy-AiXl3zuCS2-83" value="Клиент постоянный?" style="points=[[0.25,0.25,0],[0.5,0,0],[0.75,0.25,0],[1,0.5,0],[0.75,0.75,0],[0.5,1,0],[0.25,0.75,0],[0,0.5,0]];shape=mxgraph.bpmn.gateway2;html=1;verticalLabelPosition=top;labelBackgroundColor=#ffffff;verticalAlign=bottom;align=center;perimeter=rhombusPerimeter;outlineConnect=0;outline=none;symbol=none;gwType=exclusive;labelPosition=center;" vertex="1" parent="1THvELaNy-AiXl3zuCS2-8">
          <mxGeometry x="1730" y="57" width="50" height="50" as="geometry" />
        </mxCell>
        <mxCell id="1THvELaNy-AiXl3zuCS2-84" style="edgeStyle=orthogonalEdgeStyle;rounded=0;orthogonalLoop=1;jettySize=auto;html=1;exitX=1;exitY=0.5;exitDx=0;exitDy=0;exitPerimeter=0;entryX=0;entryY=0.5;entryDx=0;entryDy=0;entryPerimeter=0;" edge="1" parent="1THvELaNy-AiXl3zuCS2-8" target="1THvELaNy-AiXl3zuCS2-83">
          <mxGeometry relative="1" as="geometry">
            <mxPoint x="1662" y="82" as="sourcePoint" />
          </mxGeometry>
        </mxCell>
        <mxCell id="1THvELaNy-AiXl3zuCS2-89" value="Рассчитать сумму со скидкой" style="points=[[0.25,0,0],[0.5,0,0],[0.75,0,0],[1,0.25,0],[1,0.5,0],[1,0.75,0],[0.75,1,0],[0.5,1,0],[0.25,1,0],[0,0.75,0],[0,0.5,0],[0,0.25,0]];shape=mxgraph.bpmn.task;whiteSpace=wrap;rectStyle=rounded;size=10;html=1;container=1;expand=0;collapsible=0;taskMarker=abstract;isLoopSub=1;" vertex="1" parent="1THvELaNy-AiXl3zuCS2-8">
          <mxGeometry x="1695" y="190" width="120" height="80" as="geometry" />
        </mxCell>
        <mxCell id="1THvELaNy-AiXl3zuCS2-90" value="Рассчитать сумму" style="points=[[0.25,0,0],[0.5,0,0],[0.75,0,0],[1,0.25,0],[1,0.5,0],[1,0.75,0],[0.75,1,0],[0.5,1,0],[0.25,1,0],[0,0.75,0],[0,0.5,0],[0,0.25,0]];shape=mxgraph.bpmn.task;whiteSpace=wrap;rectStyle=rounded;size=10;html=1;container=1;expand=0;collapsible=0;taskMarker=service;" vertex="1" parent="1THvELaNy-AiXl3zuCS2-8">
          <mxGeometry x="1900" y="42" width="120" height="80" as="geometry" />
        </mxCell>
        <mxCell id="1THvELaNy-AiXl3zuCS2-91" value="" style="points=[[0.25,0.25,0],[0.5,0,0],[0.75,0.25,0],[1,0.5,0],[0.75,0.75,0],[0.5,1,0],[0.25,0.75,0],[0,0.5,0]];shape=mxgraph.bpmn.gateway2;html=1;verticalLabelPosition=top;labelBackgroundColor=#ffffff;verticalAlign=bottom;align=center;perimeter=rhombusPerimeter;outlineConnect=0;outline=none;symbol=none;gwType=exclusive;labelPosition=center;" vertex="1" parent="1THvELaNy-AiXl3zuCS2-8">
          <mxGeometry x="2080" y="57" width="50" height="50" as="geometry" />
        </mxCell>
        <mxCell id="1THvELaNy-AiXl3zuCS2-92" style="edgeStyle=orthogonalEdgeStyle;rounded=0;orthogonalLoop=1;jettySize=auto;html=1;exitX=1;exitY=0.5;exitDx=0;exitDy=0;exitPerimeter=0;entryX=0;entryY=0.5;entryDx=0;entryDy=0;entryPerimeter=0;" edge="1" parent="1THvELaNy-AiXl3zuCS2-8" source="1THvELaNy-AiXl3zuCS2-90" target="1THvELaNy-AiXl3zuCS2-91">
          <mxGeometry relative="1" as="geometry" />
        </mxCell>
        <mxCell id="1THvELaNy-AiXl3zuCS2-93" style="edgeStyle=orthogonalEdgeStyle;rounded=0;orthogonalLoop=1;jettySize=auto;html=1;exitX=1;exitY=0.5;exitDx=0;exitDy=0;exitPerimeter=0;entryX=0.5;entryY=1;entryDx=0;entryDy=0;entryPerimeter=0;" edge="1" parent="1THvELaNy-AiXl3zuCS2-8" source="1THvELaNy-AiXl3zuCS2-89" target="1THvELaNy-AiXl3zuCS2-91">
          <mxGeometry relative="1" as="geometry" />
        </mxCell>
        <mxCell id="1THvELaNy-AiXl3zuCS2-96" style="edgeStyle=orthogonalEdgeStyle;rounded=0;orthogonalLoop=1;jettySize=auto;html=1;dashed=1;dashPattern=12 12;strokeColor=default;align=center;verticalAlign=middle;fontFamily=Helvetica;fontSize=11;fontColor=default;labelBackgroundColor=default;startArrow=oval;startFill=0;endArrow=block;endFill=0;" edge="1" parent="1THvELaNy-AiXl3zuCS2-8">
          <mxGeometry relative="1" as="geometry">
            <mxPoint x="2184" y="-50" as="targetPoint" />
            <Array as="points">
              <mxPoint x="2184" y="20" />
              <mxPoint x="2184" y="20" />
            </Array>
            <mxPoint x="2184" y="66" as="sourcePoint" />
          </mxGeometry>
        </mxCell>
        <mxCell id="1THvELaNy-AiXl3zuCS2-95" value="Выберите способ&lt;div&gt;оплаты?&lt;/div&gt;" style="points=[[0.25,0.25,0],[0.5,0,0],[0.75,0.25,0],[1,0.5,0],[0.75,0.75,0],[0.5,1,0],[0.25,0.75,0],[0,0.5,0]];shape=mxgraph.bpmn.gateway2;html=1;verticalLabelPosition=top;labelBackgroundColor=#ffffff;verticalAlign=bottom;align=center;perimeter=rhombusPerimeter;outlineConnect=0;outline=catching;symbol=multiple;labelPosition=center;" vertex="1" parent="1THvELaNy-AiXl3zuCS2-8">
          <mxGeometry x="2168" y="57" width="50" height="50" as="geometry" />
        </mxCell>
        <mxCell id="1THvELaNy-AiXl3zuCS2-97" style="edgeStyle=orthogonalEdgeStyle;rounded=0;orthogonalLoop=1;jettySize=auto;html=1;exitX=1;exitY=0.5;exitDx=0;exitDy=0;exitPerimeter=0;entryX=0;entryY=0.5;entryDx=0;entryDy=0;entryPerimeter=0;" edge="1" parent="1THvELaNy-AiXl3zuCS2-8" source="1THvELaNy-AiXl3zuCS2-91" target="1THvELaNy-AiXl3zuCS2-95">
          <mxGeometry relative="1" as="geometry" />
        </mxCell>
        <mxCell id="1THvELaNy-AiXl3zuCS2-99" value="Онлайн" style="points=[[0.145,0.145,0],[0.5,0,0],[0.855,0.145,0],[1,0.5,0],[0.855,0.855,0],[0.5,1,0],[0.145,0.855,0],[0,0.5,0]];shape=mxgraph.bpmn.event;html=1;verticalLabelPosition=bottom;labelBackgroundColor=#ffffff;verticalAlign=top;align=center;perimeter=ellipsePerimeter;outlineConnect=0;aspect=fixed;outline=throwing;symbol=message;" vertex="1" parent="1THvELaNy-AiXl3zuCS2-8">
          <mxGeometry x="2270" y="57" width="50" height="50" as="geometry" />
        </mxCell>
        <mxCell id="1THvELaNy-AiXl3zuCS2-164" style="edgeStyle=orthogonalEdgeStyle;rounded=0;orthogonalLoop=1;jettySize=auto;html=1;exitX=0.5;exitY=1;exitDx=0;exitDy=0;exitPerimeter=0;" edge="1" parent="1THvELaNy-AiXl3zuCS2-8" source="1THvELaNy-AiXl3zuCS2-102" target="1THvELaNy-AiXl3zuCS2-163">
          <mxGeometry relative="1" as="geometry" />
        </mxCell>
        <mxCell id="1THvELaNy-AiXl3zuCS2-102" value="Офлайн при&lt;div&gt;заселении&lt;/div&gt;" style="points=[[0.145,0.145,0],[0.5,0,0],[0.855,0.145,0],[1,0.5,0],[0.855,0.855,0],[0.5,1,0],[0.145,0.855,0],[0,0.5,0]];shape=mxgraph.bpmn.event;html=1;verticalLabelPosition=bottom;labelBackgroundColor=#ffffff;verticalAlign=top;align=center;perimeter=ellipsePerimeter;outlineConnect=0;aspect=fixed;outline=throwing;symbol=message;" vertex="1" parent="1THvELaNy-AiXl3zuCS2-8">
          <mxGeometry x="2168" y="153" width="50" height="50" as="geometry" />
        </mxCell>
        <mxCell id="1THvELaNy-AiXl3zuCS2-103" style="edgeStyle=orthogonalEdgeStyle;rounded=0;orthogonalLoop=1;jettySize=auto;html=1;exitX=1;exitY=0.5;exitDx=0;exitDy=0;exitPerimeter=0;entryX=0;entryY=0.5;entryDx=0;entryDy=0;entryPerimeter=0;" edge="1" parent="1THvELaNy-AiXl3zuCS2-8" source="1THvELaNy-AiXl3zuCS2-95" target="1THvELaNy-AiXl3zuCS2-99">
          <mxGeometry relative="1" as="geometry" />
        </mxCell>
        <mxCell id="1THvELaNy-AiXl3zuCS2-104" style="edgeStyle=orthogonalEdgeStyle;rounded=0;orthogonalLoop=1;jettySize=auto;html=1;exitX=0.5;exitY=1;exitDx=0;exitDy=0;exitPerimeter=0;entryX=0.5;entryY=0;entryDx=0;entryDy=0;entryPerimeter=0;" edge="1" parent="1THvELaNy-AiXl3zuCS2-8" source="1THvELaNy-AiXl3zuCS2-95" target="1THvELaNy-AiXl3zuCS2-102">
          <mxGeometry relative="1" as="geometry" />
        </mxCell>
        <mxCell id="1THvELaNy-AiXl3zuCS2-105" style="edgeStyle=orthogonalEdgeStyle;rounded=0;orthogonalLoop=1;jettySize=auto;html=1;dashed=1;dashPattern=12 12;strokeColor=default;align=center;verticalAlign=middle;fontFamily=Helvetica;fontSize=11;fontColor=default;labelBackgroundColor=default;startArrow=oval;startFill=0;endArrow=block;endFill=0;entryX=0.5;entryY=0;entryDx=0;entryDy=0;entryPerimeter=0;" edge="1" parent="1THvELaNy-AiXl3zuCS2-8">
          <mxGeometry relative="1" as="geometry">
            <mxPoint x="2294.5" y="57" as="targetPoint" />
            <Array as="points">
              <mxPoint x="2294.5" y="57" />
            </Array>
            <mxPoint x="2294.5" y="-50" as="sourcePoint" />
          </mxGeometry>
        </mxCell>
        <mxCell id="1THvELaNy-AiXl3zuCS2-106" style="edgeStyle=orthogonalEdgeStyle;rounded=0;orthogonalLoop=1;jettySize=auto;html=1;dashed=1;dashPattern=12 12;strokeColor=default;align=center;verticalAlign=middle;fontFamily=Helvetica;fontSize=11;fontColor=default;labelBackgroundColor=default;startArrow=oval;startFill=0;endArrow=block;endFill=0;entryX=1;entryY=0.5;entryDx=0;entryDy=0;entryPerimeter=0;" edge="1" parent="1THvELaNy-AiXl3zuCS2-8" target="1THvELaNy-AiXl3zuCS2-102">
          <mxGeometry relative="1" as="geometry">
            <mxPoint x="2240" y="57" as="targetPoint" />
            <Array as="points">
              <mxPoint x="2230" y="-50" />
              <mxPoint x="2230" y="180" />
              <mxPoint x="2220" y="180" />
              <mxPoint x="2220" y="178" />
            </Array>
            <mxPoint x="2230" y="-50" as="sourcePoint" />
          </mxGeometry>
        </mxCell>
        <mxCell id="1THvELaNy-AiXl3zuCS2-114" value="Подтверждаете &lt;br&gt;бронь?" style="points=[[0.25,0.25,0],[0.5,0,0],[0.75,0.25,0],[1,0.5,0],[0.75,0.75,0],[0.5,1,0],[0.25,0.75,0],[0,0.5,0]];shape=mxgraph.bpmn.gateway2;html=1;verticalLabelPosition=top;labelBackgroundColor=#ffffff;verticalAlign=bottom;align=center;perimeter=rhombusPerimeter;outlineConnect=0;outline=catching;symbol=multiple;labelPosition=center;" vertex="1" parent="1THvELaNy-AiXl3zuCS2-8">
          <mxGeometry x="2390" y="57" width="50" height="50" as="geometry" />
        </mxCell>
        <mxCell id="1THvELaNy-AiXl3zuCS2-115" style="edgeStyle=orthogonalEdgeStyle;rounded=0;orthogonalLoop=1;jettySize=auto;html=1;exitX=1;exitY=0.5;exitDx=0;exitDy=0;exitPerimeter=0;entryX=0;entryY=0.5;entryDx=0;entryDy=0;entryPerimeter=0;" edge="1" parent="1THvELaNy-AiXl3zuCS2-8" source="1THvELaNy-AiXl3zuCS2-99" target="1THvELaNy-AiXl3zuCS2-114">
          <mxGeometry relative="1" as="geometry" />
        </mxCell>
        <mxCell id="1THvELaNy-AiXl3zuCS2-116" value="Да" style="points=[[0.145,0.145,0],[0.5,0,0],[0.855,0.145,0],[1,0.5,0],[0.855,0.855,0],[0.5,1,0],[0.145,0.855,0],[0,0.5,0]];shape=mxgraph.bpmn.event;html=1;verticalLabelPosition=bottom;labelBackgroundColor=#ffffff;verticalAlign=top;align=center;perimeter=ellipsePerimeter;outlineConnect=0;aspect=fixed;outline=throwing;symbol=message;" vertex="1" parent="1THvELaNy-AiXl3zuCS2-8">
          <mxGeometry x="2480" y="57" width="50" height="50" as="geometry" />
        </mxCell>
        <mxCell id="1THvELaNy-AiXl3zuCS2-120" style="edgeStyle=orthogonalEdgeStyle;rounded=0;orthogonalLoop=1;jettySize=auto;html=1;exitX=1;exitY=0.5;exitDx=0;exitDy=0;exitPerimeter=0;entryX=0;entryY=0.5;entryDx=0;entryDy=0;entryPerimeter=0;" edge="1" parent="1THvELaNy-AiXl3zuCS2-8" source="1THvELaNy-AiXl3zuCS2-114" target="1THvELaNy-AiXl3zuCS2-116">
          <mxGeometry relative="1" as="geometry" />
        </mxCell>
        <mxCell id="1THvELaNy-AiXl3zuCS2-121" style="edgeStyle=orthogonalEdgeStyle;rounded=0;orthogonalLoop=1;jettySize=auto;html=1;exitX=1;exitY=0.5;exitDx=0;exitDy=0;exitPerimeter=0;entryX=0;entryY=0.5;entryDx=0;entryDy=0;entryPerimeter=0;" edge="1" parent="1THvELaNy-AiXl3zuCS2-8" source="1THvELaNy-AiXl3zuCS2-116">
          <mxGeometry relative="1" as="geometry">
            <mxPoint x="2580" y="82" as="targetPoint" />
          </mxGeometry>
        </mxCell>
        <mxCell id="1THvELaNy-AiXl3zuCS2-170" value="" style="edgeStyle=orthogonalEdgeStyle;rounded=0;orthogonalLoop=1;jettySize=auto;html=1;" edge="1" parent="1THvELaNy-AiXl3zuCS2-8" source="1THvELaNy-AiXl3zuCS2-122" target="1THvELaNy-AiXl3zuCS2-130">
          <mxGeometry relative="1" as="geometry" />
        </mxCell>
        <mxCell id="1THvELaNy-AiXl3zuCS2-122" value="Нет" style="points=[[0.145,0.145,0],[0.5,0,0],[0.855,0.145,0],[1,0.5,0],[0.855,0.855,0],[0.5,1,0],[0.145,0.855,0],[0,0.5,0]];shape=mxgraph.bpmn.event;html=1;verticalLabelPosition=middle;labelBackgroundColor=#ffffff;verticalAlign=middle;align=right;perimeter=ellipsePerimeter;outlineConnect=0;aspect=fixed;outline=throwing;symbol=message;labelPosition=left;" vertex="1" parent="1THvELaNy-AiXl3zuCS2-8">
          <mxGeometry x="2390" y="196" width="50" height="50" as="geometry" />
        </mxCell>
        <mxCell id="1THvELaNy-AiXl3zuCS2-125" style="edgeStyle=orthogonalEdgeStyle;rounded=0;orthogonalLoop=1;jettySize=auto;html=1;exitX=0.5;exitY=1;exitDx=0;exitDy=0;exitPerimeter=0;entryX=0.5;entryY=0;entryDx=0;entryDy=0;entryPerimeter=0;" edge="1" parent="1THvELaNy-AiXl3zuCS2-8" source="1THvELaNy-AiXl3zuCS2-114" target="1THvELaNy-AiXl3zuCS2-122">
          <mxGeometry relative="1" as="geometry" />
        </mxCell>
        <mxCell id="1THvELaNy-AiXl3zuCS2-126" style="edgeStyle=orthogonalEdgeStyle;rounded=0;orthogonalLoop=1;jettySize=auto;html=1;dashed=1;dashPattern=12 12;strokeColor=default;align=center;verticalAlign=middle;fontFamily=Helvetica;fontSize=11;fontColor=default;labelBackgroundColor=default;startArrow=oval;startFill=0;endArrow=block;endFill=0;" edge="1" parent="1THvELaNy-AiXl3zuCS2-8">
          <mxGeometry relative="1" as="geometry">
            <mxPoint x="2400" y="-50" as="targetPoint" />
            <Array as="points">
              <mxPoint x="2400" y="20" />
              <mxPoint x="2400" y="20" />
            </Array>
            <mxPoint x="2400" y="66" as="sourcePoint" />
          </mxGeometry>
        </mxCell>
        <mxCell id="1THvELaNy-AiXl3zuCS2-127" style="edgeStyle=orthogonalEdgeStyle;rounded=0;orthogonalLoop=1;jettySize=auto;html=1;dashed=1;dashPattern=12 12;strokeColor=default;align=center;verticalAlign=middle;fontFamily=Helvetica;fontSize=11;fontColor=default;labelBackgroundColor=default;startArrow=oval;startFill=0;endArrow=block;endFill=0;entryX=0.5;entryY=0;entryDx=0;entryDy=0;entryPerimeter=0;" edge="1" parent="1THvELaNy-AiXl3zuCS2-8">
          <mxGeometry relative="1" as="geometry">
            <mxPoint x="2504.5" y="57" as="targetPoint" />
            <Array as="points">
              <mxPoint x="2505" y="10" />
              <mxPoint x="2505" y="10" />
            </Array>
            <mxPoint x="2504.5" y="-50" as="sourcePoint" />
          </mxGeometry>
        </mxCell>
        <mxCell id="1THvELaNy-AiXl3zuCS2-128" style="edgeStyle=orthogonalEdgeStyle;rounded=0;orthogonalLoop=1;jettySize=auto;html=1;dashed=1;dashPattern=12 12;strokeColor=default;align=center;verticalAlign=middle;fontFamily=Helvetica;fontSize=11;fontColor=default;labelBackgroundColor=default;startArrow=oval;startFill=0;endArrow=block;endFill=0;entryX=1;entryY=0.5;entryDx=0;entryDy=0;entryPerimeter=0;" edge="1" parent="1THvELaNy-AiXl3zuCS2-8" target="1THvELaNy-AiXl3zuCS2-122">
          <mxGeometry relative="1" as="geometry">
            <mxPoint x="2440" y="178" as="targetPoint" />
            <Array as="points">
              <mxPoint x="2462" y="221" />
            </Array>
            <mxPoint x="2462" y="-50" as="sourcePoint" />
          </mxGeometry>
        </mxCell>
        <mxCell id="1THvELaNy-AiXl3zuCS2-130" value="Попрощаться&amp;nbsp;&lt;div&gt;с клиентом&lt;/div&gt;" style="points=[[0.145,0.145,0],[0.5,0,0],[0.855,0.145,0],[1,0.5,0],[0.855,0.855,0],[0.5,1,0],[0.145,0.855,0],[0,0.5,0]];shape=mxgraph.bpmn.event;html=1;verticalLabelPosition=bottom;labelBackgroundColor=#ffffff;verticalAlign=top;align=center;perimeter=ellipsePerimeter;outlineConnect=0;aspect=fixed;outline=end;symbol=terminate2;" vertex="1" parent="1THvELaNy-AiXl3zuCS2-8">
          <mxGeometry x="2390" y="300" width="50" height="50" as="geometry" />
        </mxCell>
        <mxCell id="1THvELaNy-AiXl3zuCS2-133" style="edgeStyle=orthogonalEdgeStyle;rounded=0;orthogonalLoop=1;jettySize=auto;html=1;exitX=1;exitY=0.5;exitDx=0;exitDy=0;exitPerimeter=0;" edge="1" parent="1THvELaNy-AiXl3zuCS2-8" source="1THvELaNy-AiXl3zuCS2-131" target="1THvELaNy-AiXl3zuCS2-132">
          <mxGeometry relative="1" as="geometry" />
        </mxCell>
        <mxCell id="1THvELaNy-AiXl3zuCS2-134" value="Отправить подтверждение брони на email&amp;nbsp;" style="edgeLabel;html=1;align=center;verticalAlign=middle;resizable=0;points=[];" vertex="1" connectable="0" parent="1THvELaNy-AiXl3zuCS2-133">
          <mxGeometry x="-0.0221" y="-1" relative="1" as="geometry">
            <mxPoint as="offset" />
          </mxGeometry>
        </mxCell>
        <mxCell id="1THvELaNy-AiXl3zuCS2-131" value="" style="points=[[0.25,0.25,0],[0.5,0,0],[0.75,0.25,0],[1,0.5,0],[0.75,0.75,0],[0.5,1,0],[0.25,0.75,0],[0,0.5,0]];shape=mxgraph.bpmn.gateway2;html=1;verticalLabelPosition=bottom;labelBackgroundColor=#ffffff;verticalAlign=top;align=center;perimeter=rhombusPerimeter;outlineConnect=0;outline=none;symbol=none;gwType=parallel;" vertex="1" parent="1THvELaNy-AiXl3zuCS2-8">
          <mxGeometry x="2825" y="57" width="50" height="50" as="geometry" />
        </mxCell>
        <mxCell id="1THvELaNy-AiXl3zuCS2-132" value="" style="points=[[0.145,0.145,0],[0.5,0,0],[0.855,0.145,0],[1,0.5,0],[0.855,0.855,0],[0.5,1,0],[0.145,0.855,0],[0,0.5,0]];shape=mxgraph.bpmn.event;html=1;verticalLabelPosition=bottom;labelBackgroundColor=#ffffff;verticalAlign=top;align=center;perimeter=ellipsePerimeter;outlineConnect=0;aspect=fixed;outline=standard;symbol=message;" vertex="1" parent="1THvELaNy-AiXl3zuCS2-8">
          <mxGeometry x="3137" y="57" width="50" height="50" as="geometry" />
        </mxCell>
        <mxCell id="1THvELaNy-AiXl3zuCS2-136" style="edgeStyle=orthogonalEdgeStyle;rounded=0;orthogonalLoop=1;jettySize=auto;html=1;dashed=1;dashPattern=12 12;strokeColor=default;align=center;verticalAlign=middle;fontFamily=Helvetica;fontSize=11;fontColor=default;labelBackgroundColor=default;startArrow=oval;startFill=0;endArrow=block;endFill=0;" edge="1" parent="1THvELaNy-AiXl3zuCS2-8">
          <mxGeometry relative="1" as="geometry">
            <mxPoint x="3162" y="-50" as="targetPoint" />
            <Array as="points">
              <mxPoint x="3161.5" y="11" />
              <mxPoint x="3161.5" y="11" />
            </Array>
            <mxPoint x="3161.5" y="57" as="sourcePoint" />
          </mxGeometry>
        </mxCell>
        <mxCell id="1THvELaNy-AiXl3zuCS2-137" value="Завершить процесс" style="points=[[0.145,0.145,0],[0.5,0,0],[0.855,0.145,0],[1,0.5,0],[0.855,0.855,0],[0.5,1,0],[0.145,0.855,0],[0,0.5,0]];shape=mxgraph.bpmn.event;html=1;verticalLabelPosition=bottom;labelBackgroundColor=#ffffff;verticalAlign=top;align=center;perimeter=ellipsePerimeter;outlineConnect=0;aspect=fixed;outline=end;symbol=terminate2;" vertex="1" parent="1THvELaNy-AiXl3zuCS2-8">
          <mxGeometry x="3283" y="57" width="50" height="50" as="geometry" />
        </mxCell>
        <mxCell id="1THvELaNy-AiXl3zuCS2-138" style="edgeStyle=orthogonalEdgeStyle;rounded=0;orthogonalLoop=1;jettySize=auto;html=1;exitX=1;exitY=0.5;exitDx=0;exitDy=0;exitPerimeter=0;entryX=0;entryY=0.5;entryDx=0;entryDy=0;entryPerimeter=0;" edge="1" parent="1THvELaNy-AiXl3zuCS2-8" source="1THvELaNy-AiXl3zuCS2-132" target="1THvELaNy-AiXl3zuCS2-137">
          <mxGeometry relative="1" as="geometry" />
        </mxCell>
        <mxCell id="1THvELaNy-AiXl3zuCS2-141" value="Отправить информацию в&amp;nbsp; службу размещения" style="points=[[0.25,0,0],[0.5,0,0],[0.75,0,0],[1,0.25,0],[1,0.5,0],[1,0.75,0],[0.75,1,0],[0.5,1,0],[0.25,1,0],[0,0.75,0],[0,0.5,0],[0,0.25,0]];shape=mxgraph.bpmn.task;whiteSpace=wrap;rectStyle=rounded;size=10;html=1;container=1;expand=0;collapsible=0;taskMarker=service;" vertex="1" parent="1THvELaNy-AiXl3zuCS2-8">
          <mxGeometry x="2790" y="528" width="120" height="80" as="geometry" />
        </mxCell>
        <mxCell id="1THvELaNy-AiXl3zuCS2-151" value="" style="points=[[0.25,0.25,0],[0.5,0,0],[0.75,0.25,0],[1,0.5,0],[0.75,0.75,0],[0.5,1,0],[0.25,0.75,0],[0,0.5,0]];shape=mxgraph.bpmn.gateway2;html=1;verticalLabelPosition=top;labelBackgroundColor=#ffffff;verticalAlign=bottom;align=center;perimeter=rhombusPerimeter;outlineConnect=0;outline=none;symbol=none;gwType=exclusive;labelPosition=center;" vertex="1" parent="1THvELaNy-AiXl3zuCS2-8">
          <mxGeometry x="2750" y="57" width="50" height="50" as="geometry" />
        </mxCell>
        <mxCell id="1THvELaNy-AiXl3zuCS2-152" style="edgeStyle=orthogonalEdgeStyle;rounded=0;orthogonalLoop=1;jettySize=auto;html=1;exitX=1;exitY=0.5;exitDx=0;exitDy=0;exitPerimeter=0;entryX=0;entryY=0.5;entryDx=0;entryDy=0;entryPerimeter=0;" edge="1" parent="1THvELaNy-AiXl3zuCS2-8" target="1THvELaNy-AiXl3zuCS2-151">
          <mxGeometry relative="1" as="geometry">
            <mxPoint x="2700" y="82" as="sourcePoint" />
          </mxGeometry>
        </mxCell>
        <mxCell id="1THvELaNy-AiXl3zuCS2-153" style="edgeStyle=orthogonalEdgeStyle;rounded=0;orthogonalLoop=1;jettySize=auto;html=1;exitX=1;exitY=0.5;exitDx=0;exitDy=0;exitPerimeter=0;entryX=0;entryY=0.5;entryDx=0;entryDy=0;entryPerimeter=0;" edge="1" parent="1THvELaNy-AiXl3zuCS2-8" source="1THvELaNy-AiXl3zuCS2-151" target="1THvELaNy-AiXl3zuCS2-131">
          <mxGeometry relative="1" as="geometry" />
        </mxCell>
        <mxCell id="1THvELaNy-AiXl3zuCS2-156" value="" style="points=[[0.25,0.25,0],[0.5,0,0],[0.75,0.25,0],[1,0.5,0],[0.75,0.75,0],[0.5,1,0],[0.25,0.75,0],[0,0.5,0]];shape=mxgraph.bpmn.gateway2;html=1;verticalLabelPosition=top;labelBackgroundColor=#ffffff;verticalAlign=bottom;align=center;perimeter=rhombusPerimeter;outlineConnect=0;outline=none;symbol=none;gwType=exclusive;labelPosition=center;" vertex="1" parent="1THvELaNy-AiXl3zuCS2-8">
          <mxGeometry x="2825" y="457" width="50" height="50" as="geometry" />
        </mxCell>
        <mxCell id="1THvELaNy-AiXl3zuCS2-158" style="edgeStyle=orthogonalEdgeStyle;rounded=0;orthogonalLoop=1;jettySize=auto;html=1;exitX=0.5;exitY=1;exitDx=0;exitDy=0;exitPerimeter=0;entryX=0.5;entryY=0;entryDx=0;entryDy=0;entryPerimeter=0;" edge="1" parent="1THvELaNy-AiXl3zuCS2-8" source="1THvELaNy-AiXl3zuCS2-131" target="1THvELaNy-AiXl3zuCS2-156">
          <mxGeometry relative="1" as="geometry" />
        </mxCell>
        <mxCell id="1THvELaNy-AiXl3zuCS2-159" style="edgeStyle=orthogonalEdgeStyle;rounded=0;orthogonalLoop=1;jettySize=auto;html=1;exitX=0.5;exitY=1;exitDx=0;exitDy=0;exitPerimeter=0;entryX=0.5;entryY=0;entryDx=0;entryDy=0;entryPerimeter=0;" edge="1" parent="1THvELaNy-AiXl3zuCS2-8" source="1THvELaNy-AiXl3zuCS2-156" target="1THvELaNy-AiXl3zuCS2-141">
          <mxGeometry relative="1" as="geometry" />
        </mxCell>
        <mxCell id="1THvELaNy-AiXl3zuCS2-160" value="Принять оплату онлайн" style="points=[[0.25,0,0],[0.5,0,0],[0.75,0,0],[1,0.25,0],[1,0.5,0],[1,0.75,0],[0.75,1,0],[0.5,1,0],[0.25,1,0],[0,0.75,0],[0,0.5,0],[0,0.25,0]];shape=mxgraph.bpmn.task;whiteSpace=wrap;rectStyle=rounded;size=10;html=1;container=1;expand=0;collapsible=0;taskMarker=abstract;isLoopSub=1;" vertex="1" parent="1THvELaNy-AiXl3zuCS2-8">
          <mxGeometry x="2580" y="42" width="120" height="80" as="geometry" />
        </mxCell>
        <mxCell id="1THvELaNy-AiXl3zuCS2-162" value="Зафиксировать контактные данные и валидировать их" style="points=[[0.25,0,0],[0.5,0,0],[0.75,0,0],[1,0.25,0],[1,0.5,0],[1,0.75,0],[0.75,1,0],[0.5,1,0],[0.25,1,0],[0,0.75,0],[0,0.5,0],[0,0.25,0]];shape=mxgraph.bpmn.task;whiteSpace=wrap;rectStyle=rounded;size=10;html=1;container=1;expand=0;collapsible=0;taskMarker=abstract;isLoopSub=1;" vertex="1" parent="1THvELaNy-AiXl3zuCS2-8">
          <mxGeometry x="1541" y="42" width="120" height="80" as="geometry" />
        </mxCell>
        <mxCell id="1THvELaNy-AiXl3zuCS2-163" value="Подтверждаете &lt;br&gt;бронь?" style="points=[[0.25,0.25,0],[0.5,0,0],[0.75,0.25,0],[1,0.5,0],[0.75,0.75,0],[0.5,1,0],[0.25,0.75,0],[0,0.5,0]];shape=mxgraph.bpmn.gateway2;html=1;verticalLabelPosition=middle;labelBackgroundColor=#ffffff;verticalAlign=middle;align=right;perimeter=rhombusPerimeter;outlineConnect=0;outline=catching;symbol=multiple;labelPosition=left;" vertex="1" parent="1THvELaNy-AiXl3zuCS2-8">
          <mxGeometry x="2168" y="259" width="52" height="51" as="geometry" />
        </mxCell>
        <mxCell id="1THvELaNy-AiXl3zuCS2-171" value="Да" style="points=[[0.145,0.145,0],[0.5,0,0],[0.855,0.145,0],[1,0.5,0],[0.855,0.855,0],[0.5,1,0],[0.145,0.855,0],[0,0.5,0]];shape=mxgraph.bpmn.event;html=1;verticalLabelPosition=middle;labelBackgroundColor=#ffffff;verticalAlign=middle;align=right;perimeter=ellipsePerimeter;outlineConnect=0;aspect=fixed;outline=throwing;symbol=message;labelPosition=left;" vertex="1" parent="1THvELaNy-AiXl3zuCS2-8">
          <mxGeometry x="2168" y="324" width="50" height="50" as="geometry" />
        </mxCell>
        <mxCell id="1THvELaNy-AiXl3zuCS2-174" style="edgeStyle=orthogonalEdgeStyle;rounded=0;orthogonalLoop=1;jettySize=auto;html=1;exitX=0.5;exitY=1;exitDx=0;exitDy=0;exitPerimeter=0;entryX=0.5;entryY=0;entryDx=0;entryDy=0;entryPerimeter=0;" edge="1" parent="1THvELaNy-AiXl3zuCS2-8" source="1THvELaNy-AiXl3zuCS2-163" target="1THvELaNy-AiXl3zuCS2-171">
          <mxGeometry relative="1" as="geometry" />
        </mxCell>
        <mxCell id="1THvELaNy-AiXl3zuCS2-177" style="edgeStyle=orthogonalEdgeStyle;rounded=0;orthogonalLoop=1;jettySize=auto;html=1;dashed=1;dashPattern=12 12;strokeColor=default;align=center;verticalAlign=middle;fontFamily=Helvetica;fontSize=11;fontColor=default;labelBackgroundColor=default;startArrow=oval;startFill=0;endArrow=block;endFill=0;exitX=0.75;exitY=0.25;exitDx=0;exitDy=0;exitPerimeter=0;" edge="1" parent="1THvELaNy-AiXl3zuCS2-8" source="1THvELaNy-AiXl3zuCS2-163">
          <mxGeometry relative="1" as="geometry">
            <mxPoint x="2240" y="-50" as="targetPoint" />
            <Array as="points">
              <mxPoint x="2240" y="272" />
            </Array>
            <mxPoint x="2240" y="279" as="sourcePoint" />
          </mxGeometry>
        </mxCell>
        <mxCell id="1THvELaNy-AiXl3zuCS2-179" value="нет" style="points=[[0.145,0.145,0],[0.5,0,0],[0.855,0.145,0],[1,0.5,0],[0.855,0.855,0],[0.5,1,0],[0.145,0.855,0],[0,0.5,0]];shape=mxgraph.bpmn.event;html=1;verticalLabelPosition=middle;labelBackgroundColor=#ffffff;verticalAlign=middle;align=left;perimeter=ellipsePerimeter;outlineConnect=0;aspect=fixed;outline=throwing;symbol=message;labelPosition=right;" vertex="1" parent="1THvELaNy-AiXl3zuCS2-8">
          <mxGeometry x="2270" y="260" width="50" height="50" as="geometry" />
        </mxCell>
        <mxCell id="1THvELaNy-AiXl3zuCS2-180" style="edgeStyle=orthogonalEdgeStyle;rounded=0;orthogonalLoop=1;jettySize=auto;html=1;exitX=1;exitY=0.5;exitDx=0;exitDy=0;exitPerimeter=0;entryX=0;entryY=0.5;entryDx=0;entryDy=0;entryPerimeter=0;" edge="1" parent="1THvELaNy-AiXl3zuCS2-8" source="1THvELaNy-AiXl3zuCS2-163" target="1THvELaNy-AiXl3zuCS2-179">
          <mxGeometry relative="1" as="geometry" />
        </mxCell>
        <mxCell id="1THvELaNy-AiXl3zuCS2-287" value="Попрощаться&amp;nbsp;&lt;div&gt;с клиентом&lt;/div&gt;" style="points=[[0.145,0.145,0],[0.5,0,0],[0.855,0.145,0],[1,0.5,0],[0.855,0.855,0],[0.5,1,0],[0.145,0.855,0],[0,0.5,0]];shape=mxgraph.bpmn.event;html=1;verticalLabelPosition=bottom;labelBackgroundColor=#ffffff;verticalAlign=top;align=center;perimeter=ellipsePerimeter;outlineConnect=0;aspect=fixed;outline=end;symbol=terminate2;" vertex="1" parent="1THvELaNy-AiXl3zuCS2-8">
          <mxGeometry x="2270" y="339" width="50" height="50" as="geometry" />
        </mxCell>
        <mxCell id="1THvELaNy-AiXl3zuCS2-288" style="edgeStyle=orthogonalEdgeStyle;rounded=0;orthogonalLoop=1;jettySize=auto;html=1;exitX=0.5;exitY=1;exitDx=0;exitDy=0;exitPerimeter=0;entryX=0.5;entryY=0;entryDx=0;entryDy=0;entryPerimeter=0;" edge="1" parent="1THvELaNy-AiXl3zuCS2-8" source="1THvELaNy-AiXl3zuCS2-179" target="1THvELaNy-AiXl3zuCS2-287">
          <mxGeometry relative="1" as="geometry" />
        </mxCell>
        <mxCell id="1THvELaNy-AiXl3zuCS2-289" style="edgeStyle=orthogonalEdgeStyle;rounded=0;orthogonalLoop=1;jettySize=auto;html=1;exitX=0.5;exitY=1;exitDx=0;exitDy=0;exitPerimeter=0;entryX=0.5;entryY=1;entryDx=0;entryDy=0;entryPerimeter=0;" edge="1" parent="1THvELaNy-AiXl3zuCS2-8" source="1THvELaNy-AiXl3zuCS2-171" target="1THvELaNy-AiXl3zuCS2-151">
          <mxGeometry relative="1" as="geometry">
            <Array as="points">
              <mxPoint x="2193" y="470" />
              <mxPoint x="2775" y="470" />
            </Array>
          </mxGeometry>
        </mxCell>
        <mxCell id="1THvELaNy-AiXl3zuCS2-9" value="Служба размещения" style="swimlane;html=1;startSize=20;horizontal=0;" vertex="1" parent="1THvELaNy-AiXl3zuCS2-7">
          <mxGeometry x="20" y="660" width="3440" height="230" as="geometry" />
        </mxCell>
        <mxCell id="1THvELaNy-AiXl3zuCS2-143" value="Обработать информацию о бронировании" style="points=[[0.25,0,0],[0.5,0,0],[0.75,0,0],[1,0.25,0],[1,0.5,0],[1,0.75,0],[0.75,1,0],[0.5,1,0],[0.25,1,0],[0,0.75,0],[0,0.5,0],[0,0.25,0]];shape=mxgraph.bpmn.task;whiteSpace=wrap;rectStyle=rounded;size=10;html=1;container=1;expand=0;collapsible=0;taskMarker=service;" vertex="1" parent="1THvELaNy-AiXl3zuCS2-9">
          <mxGeometry x="2790" y="40" width="120" height="80" as="geometry" />
        </mxCell>
        <mxCell id="1THvELaNy-AiXl3zuCS2-145" value="Завершить процесс" style="points=[[0.145,0.145,0],[0.5,0,0],[0.855,0.145,0],[1,0.5,0],[0.855,0.855,0],[0.5,1,0],[0.145,0.855,0],[0,0.5,0]];shape=mxgraph.bpmn.event;html=1;verticalLabelPosition=bottom;labelBackgroundColor=#ffffff;verticalAlign=top;align=center;perimeter=ellipsePerimeter;outlineConnect=0;aspect=fixed;outline=end;symbol=terminate2;" vertex="1" parent="1THvELaNy-AiXl3zuCS2-9">
          <mxGeometry x="2980" y="55" width="50" height="50" as="geometry" />
        </mxCell>
        <mxCell id="1THvELaNy-AiXl3zuCS2-146" style="edgeStyle=orthogonalEdgeStyle;rounded=0;orthogonalLoop=1;jettySize=auto;html=1;exitX=1;exitY=0.5;exitDx=0;exitDy=0;exitPerimeter=0;entryX=0;entryY=0.5;entryDx=0;entryDy=0;entryPerimeter=0;" edge="1" parent="1THvELaNy-AiXl3zuCS2-9" source="1THvELaNy-AiXl3zuCS2-143" target="1THvELaNy-AiXl3zuCS2-145">
          <mxGeometry relative="1" as="geometry" />
        </mxCell>
        <mxCell id="1THvELaNy-AiXl3zuCS2-144" style="edgeStyle=orthogonalEdgeStyle;rounded=0;orthogonalLoop=1;jettySize=auto;html=1;exitX=0.5;exitY=1;exitDx=0;exitDy=0;exitPerimeter=0;entryX=0.5;entryY=0;entryDx=0;entryDy=0;entryPerimeter=0;" edge="1" parent="1THvELaNy-AiXl3zuCS2-7" source="1THvELaNy-AiXl3zuCS2-141" target="1THvELaNy-AiXl3zuCS2-143">
          <mxGeometry relative="1" as="geometry" />
        </mxCell>
        <mxCell id="1THvELaNy-AiXl3zuCS2-14" style="edgeStyle=orthogonalEdgeStyle;rounded=0;orthogonalLoop=1;jettySize=auto;html=1;startArrow=block;startFill=0;endArrow=oval;endFill=0;dashed=1;dashPattern=12 12;" edge="1" parent="1" source="1THvELaNy-AiXl3zuCS2-11">
          <mxGeometry relative="1" as="geometry">
            <mxPoint x="170" y="130" as="targetPoint" />
            <mxPoint x="170" y="530" as="sourcePoint" />
          </mxGeometry>
        </mxCell>
        <mxCell id="1THvELaNy-AiXl3zuCS2-94" style="edgeStyle=orthogonalEdgeStyle;rounded=0;orthogonalLoop=1;jettySize=auto;html=1;dashed=1;dashPattern=12 12;strokeColor=default;align=center;verticalAlign=middle;fontFamily=Helvetica;fontSize=11;fontColor=default;labelBackgroundColor=default;startArrow=oval;startFill=0;endArrow=block;endFill=0;" edge="1" parent="1">
          <mxGeometry relative="1" as="geometry">
            <mxPoint x="1360" y="130" as="targetPoint" />
            <Array as="points">
              <mxPoint x="1360" y="246" />
            </Array>
            <mxPoint x="1360" y="246" as="sourcePoint" />
          </mxGeometry>
        </mxCell>
        <mxCell id="1THvELaNy-AiXl3zuCS2-161" value="Предложения по оптимизации процесса:&lt;br style=&quot;font-size: 20px;&quot;&gt;&lt;br style=&quot;font-size: 20px;&quot;&gt;1. Для постоянных клиентов реализовать автоматическое предложение вариантов номеров на основе их предпочтений.&amp;nbsp;&lt;div style=&quot;font-size: 20px;&quot;&gt;2. Реализовать возможность приема оплаты онлайн разными способами (карты, электронные деньги).&lt;/div&gt;&lt;div style=&quot;font-size: 20px;&quot;&gt;3. Для постоянных клиентов разработать систему лояльности с баллами, которые можно использовать при оплате.&lt;/div&gt;&lt;div style=&quot;font-size: 20px;&quot;&gt;4. Добавить возможность автоматической авторизации (по токенам, куки и пр.).&lt;/div&gt;&lt;div style=&quot;font-size: 20px;&quot;&gt;5. Для постоянных клиентов организовать автоматический ввод данных для бронирования с возможностью ручного редактирования.&lt;/div&gt;" style="text;html=1;align=left;verticalAlign=middle;whiteSpace=wrap;rounded=0;fontSize=20;" vertex="1" parent="1">
          <mxGeometry x="90" y="1010" width="1150" height="280" as="geometry" />
        </mxCell>
        <mxCell id="1THvELaNy-AiXl3zuCS2-178" style="edgeStyle=orthogonalEdgeStyle;rounded=0;orthogonalLoop=1;jettySize=auto;html=1;dashed=1;dashPattern=12 12;strokeColor=default;align=center;verticalAlign=middle;fontFamily=Helvetica;fontSize=11;fontColor=default;labelBackgroundColor=default;startArrow=oval;startFill=0;endArrow=block;endFill=0;entryX=1;entryY=0.5;entryDx=0;entryDy=0;entryPerimeter=0;" edge="1" parent="1" target="1THvELaNy-AiXl3zuCS2-171">
          <mxGeometry relative="1" as="geometry">
            <mxPoint x="2310" y="237" as="targetPoint" />
            <Array as="points">
              <mxPoint x="2310" y="529" />
            </Array>
            <mxPoint x="2310" y="130" as="sourcePoint" />
          </mxGeometry>
        </mxCell>
        <mxCell id="1THvELaNy-AiXl3zuCS2-181" style="edgeStyle=orthogonalEdgeStyle;rounded=0;orthogonalLoop=1;jettySize=auto;html=1;dashed=1;dashPattern=12 12;strokeColor=default;align=center;verticalAlign=middle;fontFamily=Helvetica;fontSize=11;fontColor=default;labelBackgroundColor=default;startArrow=oval;startFill=0;endArrow=block;endFill=0;entryX=0.5;entryY=0;entryDx=0;entryDy=0;entryPerimeter=0;" edge="1" parent="1" target="1THvELaNy-AiXl3zuCS2-179">
          <mxGeometry relative="1" as="geometry">
            <mxPoint x="2320" y="237" as="targetPoint" />
            <Array as="points">
              <mxPoint x="2321" y="440" />
            </Array>
            <mxPoint x="2320" y="130" as="sourcePoint" />
          </mxGeometry>
        </mxCell>
      </root>
    </mxGraphModel>
  </diagram>
</mxfile>
